<?xml version="1.0" encoding="UTF-8" standalone="no"?>
<!-- Created with Inkscape (http://www.inkscape.org/) -->
<svg
   xmlns:dc="http://purl.org/dc/elements/1.1/"
   xmlns:cc="http://creativecommons.org/ns#"
   xmlns:rdf="http://www.w3.org/1999/02/22-rdf-syntax-ns#"
   xmlns:svg="http://www.w3.org/2000/svg"
   xmlns="http://www.w3.org/2000/svg"
   xmlns:xlink="http://www.w3.org/1999/xlink"
   xmlns:sodipodi="http://sodipodi.sourceforge.net/DTD/sodipodi-0.dtd"
   xmlns:inkscape="http://www.inkscape.org/namespaces/inkscape"
   width="1202.1432"
   height="788.52905"
   id="svg2383"
   sodipodi:version="0.32"
   inkscape:version="0.46"
   version="1.0"
   sodipodi:docname="Rouen-Les-Essarts.svg"
   inkscape:output_extension="org.inkscape.output.svg.inkscape"
   inkscape:export-filename="D:\Images\Race Tracks\Rouen-Les-Essarts.png"
   inkscape:export-xdpi="90"
   inkscape:export-ydpi="90">
  <defs
     id="defs2385">
    <clipPath
       clipPathUnits="userSpaceOnUse"
       id="clipPath9724">
      <path
         id="path9726"
         d="M 727.23942,720.30758 C 1333.36,720.30758 1939.4804,720.30758 2545.601,720.30758 C 2545.601,974.89282 2545.601,1229.4779 2545.601,1484.0631 C 1939.4804,1484.0631 1333.36,1484.0631 727.23942,1484.0631 C 727.23942,1229.4779 727.23942,974.89282 727.23942,720.30758 z"
         style="fill:#6a6a6a;fill-opacity:1;fill-rule:nonzero;stroke:#010101;stroke-width:0.94262564;stroke-linecap:round;stroke-linejoin:round;stroke-miterlimit:4;stroke-dasharray:none;stroke-dashoffset:0;stroke-opacity:1" />
    </clipPath>
    <clipPath
       clipPathUnits="userSpaceOnUse"
       id="clipPath3490">
      <rect
         style="opacity:1;fill:#006a00;fill-opacity:1;fill-rule:nonzero;stroke:none;stroke-width:0.60000002;stroke-linecap:square;stroke-linejoin:round;stroke-miterlimit:4;stroke-dasharray:none;stroke-dashoffset:0;stroke-opacity:1"
         id="rect3492"
         width="1511.7875"
         height="1003.7479"
         x="683.1405"
         y="104.1039"
         transform="matrix(-0.7183395,0.6956928,-0.6956928,-0.7183395,0,0)" />
    </clipPath>
    <pattern
       patternUnits="userSpaceOnUse"
       width="18.181098"
       height="18.137641"
       patternTransform="matrix(0.1737876,0,0,0.1737876,763.47719,1693.9071)"
       id="pattern4912">
      <g
         id="g4907"
         transform="translate(-1025.5348,-1215.2814)">
        <rect
           style="opacity:1;fill:#000000;fill-opacity:1;stroke:none;stroke-width:0.5;stroke-linecap:round;stroke-linejoin:round;stroke-miterlimit:4;stroke-dasharray:none;stroke-dashoffset:0;stroke-opacity:1"
           id="rect4899"
           width="18.172573"
           height="18.095789"
           x="1025.5348"
           y="1215.2814" />
        <rect
           style="opacity:1;fill:#ffffff;fill-opacity:1;stroke:none;stroke-width:0.5;stroke-linecap:round;stroke-linejoin:round;stroke-miterlimit:4;stroke-dasharray:none;stroke-dashoffset:0;stroke-opacity:1"
           id="rect4903"
           width="9.0746527"
           height="9.0746527"
           x="1025.5348"
           y="1215.2814" />
        <rect
           style="opacity:1;fill:#ffffff;fill-opacity:1;stroke:none;stroke-width:0.5;stroke-linecap:round;stroke-linejoin:round;stroke-miterlimit:4;stroke-dasharray:none;stroke-dashoffset:0;stroke-opacity:1"
           id="rect4905"
           width="9.0746527"
           height="9.0746527"
           x="1034.6412"
           y="1224.3444" />
      </g>
    </pattern>
    <pattern
       inkscape:collect="always"
       xlink:href="#pattern4912"
       id="pattern4166"
       patternTransform="matrix(0.4562459,1.6264824e-8,-1.6264824e-8,0.4562459,-1778.2267,454.6431)" />
    <clipPath
       clipPathUnits="userSpaceOnUse"
       id="clipPath3494">
      <rect
         style="opacity:1;fill:#006a00;fill-opacity:1;fill-rule:nonzero;stroke:none;stroke-width:0.60000002;stroke-linecap:square;stroke-linejoin:round;stroke-miterlimit:4;stroke-dasharray:none;stroke-dashoffset:0;stroke-opacity:1"
         id="rect3496"
         width="2168.1926"
         height="1468.4177"
         x="-4232.8457"
         y="-2372.1296"
         transform="matrix(-0.9472965,-0.3203582,0.9519016,-0.3064038,0,0)" />
    </clipPath>
    <clipPath
       clipPathUnits="userSpaceOnUse"
       id="clipPath9716">
      <path
         id="path9718"
         d="M 871.13547,932.36346 C 1314.8756,1345.252 1758.6155,1758.1404 2202.3556,2171.029 C 2375.7787,1984.6474 2549.2018,1798.266 2722.6249,1611.8845 C 2278.8848,1198.996 1835.1448,786.10758 1391.4047,373.21904 C 1217.9816,559.60052 1044.5586,745.98194 871.13547,932.36346 z"
         style="fill:#6a6a6a;fill-opacity:1;fill-rule:nonzero;stroke:#010101;stroke-width:0.9426257;stroke-linecap:round;stroke-linejoin:round;stroke-miterlimit:4;stroke-dasharray:none;stroke-dashoffset:0;stroke-opacity:1" />
    </clipPath>
    <clipPath
       clipPathUnits="userSpaceOnUse"
       id="clipPath9676">
      <path
         id="path9678"
         d="M 378.35058,304.74224 C 984.47118,304.74224 1590.5916,304.74224 2196.7122,304.74224 C 2196.7122,559.32748 2196.7122,813.91258 2196.7122,1068.4978 C 1590.5916,1068.4978 984.47118,1068.4978 378.35058,1068.4978 C 378.35058,813.91258 378.35058,559.32748 378.35058,304.74224 z"
         style="fill:#6a6a6a;fill-opacity:1;fill-rule:nonzero;stroke:#010101;stroke-width:0.94262564;stroke-linecap:round;stroke-linejoin:round;stroke-miterlimit:4;stroke-dasharray:none;stroke-dashoffset:0;stroke-opacity:1" />
    </clipPath>
    <inkscape:perspective
       sodipodi:type="inkscape:persp3d"
       inkscape:vp_x="0 : 526.18109 : 1"
       inkscape:vp_y="0 : 1000 : 0"
       inkscape:vp_z="744.09448 : 526.18109 : 1"
       inkscape:persp3d-origin="372.04724 : 350.78739 : 1"
       id="perspective2391" />
    <inkscape:perspective
       id="perspective2400"
       inkscape:persp3d-origin="372.04724 : 350.78739 : 1"
       inkscape:vp_z="744.09448 : 526.18109 : 1"
       inkscape:vp_y="0 : 1000 : 0"
       inkscape:vp_x="0 : 526.18109 : 1"
       sodipodi:type="inkscape:persp3d" />
    <inkscape:perspective
       id="perspective3940"
       inkscape:persp3d-origin="372.04724 : 350.78739 : 1"
       inkscape:vp_z="744.09448 : 526.18109 : 1"
       inkscape:vp_y="0 : 1000 : 0"
       inkscape:vp_x="0 : 526.18109 : 1"
       sodipodi:type="inkscape:persp3d" />
    <inkscape:perspective
       id="perspective3953"
       inkscape:persp3d-origin="372.04724 : 350.78739 : 1"
       inkscape:vp_z="744.09448 : 526.18109 : 1"
       inkscape:vp_y="0 : 1000 : 0"
       inkscape:vp_x="0 : 526.18109 : 1"
       sodipodi:type="inkscape:persp3d" />
  </defs>
  <sodipodi:namedview
     id="base"
     pagecolor="#ffffff"
     bordercolor="#ffffff"
     borderopacity="0.0"
     inkscape:pageopacity="0.0"
     inkscape:pageshadow="0"
     inkscape:zoom="1.0389232"
     inkscape:cx="601.10315"
     inkscape:cy="394.28523"
     inkscape:document-units="px"
     inkscape:current-layer="layer1"
     showgrid="false"
     showguides="true"
     inkscape:guide-bbox="true"
     inkscape:window-width="1677"
     inkscape:window-height="1031"
     inkscape:window-x="1276"
     inkscape:window-y="-4" />
  <metadata
     id="metadata2388">
    <rdf:RDF>
      <cc:Work
         rdf:about="">
        <dc:format>image/svg+xml</dc:format>
        <dc:type
           rdf:resource="http://purl.org/dc/dcmitype/StillImage" />
        <dc:title>Track map of Rouen-Les-Essarts</dc:title>
        <dc:date>7-25-2008</dc:date>
        <dc:creator>
          <cc:Agent>
            <dc:title>Will Pittenger</dc:title>
          </cc:Agent>
        </dc:creator>
        <dc:publisher>
          <cc:Agent>
            <dc:title>Will Pittenger</dc:title>
          </cc:Agent>
        </dc:publisher>
        <dc:subject>
          <rdf:Bag>
            <rdf:li>Rouen-Les-Essarts</rdf:li>
            <rdf:li>street racing</rdf:li>
            <rdf:li>Formula 1</rdf:li>
            <rdf:li>Virage des Six Fréres</rdf:li>
            <rdf:li>Virage du Nouveau Monde</rdf:li>
            <rdf:li>Virage Samson</rdf:li>
            <rdf:li>Courbe de l'Etoile</rdf:li>
            <rdf:li>Virage du Gresil</rdf:li>
            <rdf:li>Virage de l'Autoroute</rdf:li>
            <rdf:li>Virage de la Côte</rdf:li>
            <rdf:li>Virage du Paradis</rdf:li>
          </rdf:Bag>
        </dc:subject>
        <dc:description>Created in Inkcsape with data from Google Earth</dc:description>
        <cc:license
           rdf:resource="http://creativecommons.org/licenses/publicdomain/" />
      </cc:Work>
      <cc:License
         rdf:about="http://creativecommons.org/licenses/publicdomain/">
        <cc:permits
           rdf:resource="http://creativecommons.org/ns#Reproduction" />
        <cc:permits
           rdf:resource="http://creativecommons.org/ns#Distribution" />
        <cc:permits
           rdf:resource="http://creativecommons.org/ns#DerivativeWorks" />
      </cc:License>
    </rdf:RDF>
  </metadata>
  <g
     inkscape:label="Layer 1"
     inkscape:groupmode="layer"
     id="layer1"
     transform="translate(-1043.0607,-877.40092)">
    <path
       sodipodi:nodetypes="csss"
       id="path3931"
       d="M 2035.1216,1596.2129 C 2014.3575,1587.3589 1992.6567,1575.3075 1971.1258,1568.61 C 1932.6037,1556.6272 1894.1295,1544.8895 1856.7945,1532.9352 C 1844.7441,1529.067 1830.7869,1531.3906 1817.4566,1527.2195"
       style="fill:none;fill-rule:evenodd;stroke:#ffffff;stroke-width:4;stroke-linecap:butt;stroke-linejoin:round;stroke-miterlimit:4;stroke-dasharray:none;stroke-opacity:1" />
    <path
       sodipodi:nodetypes="czs"
       id="path3927"
       d="M 1313.1519,1197.2309 C 1302.7733,1191.9454 1283.3983,1178.4521 1276.6506,1171.9186 C 1269.9995,1165.4789 1257.3219,1152.5901 1250.4279,1140.1643"
       style="fill:none;fill-rule:evenodd;stroke:#ffffff;stroke-width:12;stroke-linecap:butt;stroke-linejoin:miter;stroke-miterlimit:4;stroke-dasharray:none;stroke-opacity:1" />
    <path
       sodipodi:nodetypes="cssssssssssssssssssssssssssssssssssssssssssss"
       id="path3929"
       d="M 1898.2444,1557.9673 C 1854.314,1544.7266 1810.7389,1529.646 1768.332,1512.4474 C 1748.3635,1504.349 1722.3544,1483.1974 1709.9381,1465.5454 C 1662.0693,1397.4906 1623.6428,1336.3005 1573.6485,1270.5393 C 1554.2361,1245.0047 1521.3109,1221.8888 1489.3882,1219.1221 C 1446.8204,1215.4328 1399.9887,1215.1247 1361.3445,1210.2307 C 1332.7942,1206.615 1319.1105,1201.3196 1294.4231,1187.2369 C 1287.2439,1183.1414 1274.4581,1185.5751 1268.711,1180.602 C 1262.5442,1175.2658 1263.6492,1164.4003 1259.6402,1156.4681 C 1255.9405,1149.1481 1251.6705,1142.2255 1247.5027,1135.1635 C 1213.74,1077.9556 1183.5592,1022.973 1146.9452,968.00906 C 1140.1389,957.79157 1126.2551,947.16851 1115.4114,941.96836 C 1099.406,934.29302 1084.0071,932.7343 1067.2565,926.49302 C 1063.0023,924.9079 1052.3864,923.21792 1052.3094,915.82187 C 1052.1685,902.28027 1067.3954,905.42662 1076.1778,906.24574 C 1097.6715,908.25031 1120.0645,907.87514 1140.6173,913.29835 C 1154.6524,917.00175 1168.7403,924.40061 1179.9414,933.6257 C 1195.0039,946.03112 1207.5969,962.31501 1219.4078,978.18984 C 1234.5594,998.55476 1245.4008,1022.1819 1260.8289,1042.345 C 1279.6314,1066.9183 1299.8434,1091.2602 1322.0995,1112.3991 C 1331.1791,1121.0228 1342.9685,1130.6162 1354.8358,1131.6327 C 1374.2869,1133.2987 1395.5487,1123.4894 1416.0546,1120.4463 C 1433.3644,1117.8775 1451.2797,1116.3898 1468.7142,1116.3089 C 1489.9294,1116.2104 1510.9129,1117.0747 1532.0034,1119.908 C 1584.9737,1127.0242 1607.8024,1135.6595 1607.9209,1103.2625 C 1608.027,1074.2447 1604.5529,1053.1919 1611.3047,1025.1099 C 1614.9267,1010.0456 1628.4884,995.99579 1639.5903,984.67801 C 1665.6783,958.08244 1695.8852,931.97171 1726.3165,911.63804 C 1735.4189,905.5561 1757.1944,902.29119 1768.3423,900.90086 C 1830.9269,893.0955 1883.6975,887.85478 1946.1619,883.52335 C 1955.603,882.86862 1967.2366,884.87556 1975.9474,888.68895 C 2021.5246,908.64162 2066.6722,930.07356 2109.0258,954.82153 C 2118.3324,960.2595 2123.8021,971.61162 2127.3765,981.46171 C 2131.007,991.46671 2130.4984,1003.4265 2127.186,1013.7376 C 2117.0937,1045.1534 2098.3662,1072.6703 2086.8164,1103.0749 C 2082.4882,1114.4688 2078.7392,1128.148 2084.2966,1138.4049 C 2095.48,1159.0458 2119.5486,1175.0186 2133.9649,1195.1067 C 2141.7504,1205.9552 2147.8392,1219.4081 2149.6119,1232.5923 C 2153.0433,1258.1109 2150.3311,1285.0283 2149.5776,1311.2147 C 2148.8026,1338.148 2144.4858,1365.5042 2146.3666,1392.0981 C 2147.7525,1411.696 2153.0267,1431.4227 2160.5208,1449.7525 C 2185.8019,1511.5866 2215.4248,1569.158 2237.7453,1630.1479 C 2240.3808,1637.3491 2239.5774,1649.8257 2234.2458,1654.3634 C 2229.1677,1658.6855 2219.1917,1661.4572 2212.1231,1659.0223 C 2104.5999,1621.9837 2001.3511,1589.0441 1898.2444,1557.9673 z"
       style="fill:none;fill-rule:evenodd;stroke:#ffffff;stroke-width:12;stroke-linecap:butt;stroke-linejoin:round;stroke-miterlimit:4;stroke-dasharray:none;stroke-opacity:1" />
    <path
       style="fill:none;fill-rule:evenodd;stroke:#c8c8c8;stroke-width:10;stroke-linecap:butt;stroke-linejoin:miter;stroke-miterlimit:4;stroke-dasharray:none;stroke-opacity:1"
       d="M 1313.1519,1197.2309 C 1302.7733,1191.9454 1283.3983,1178.4521 1276.6506,1171.9186 C 1269.9995,1165.4789 1257.3219,1152.5901 1250.4279,1140.1643"
       id="path3180"
       sodipodi:nodetypes="czs" />
    <path
       style="fill:none;fill-rule:evenodd;stroke:#000000;stroke-width:10;stroke-linecap:butt;stroke-linejoin:round;stroke-miterlimit:4;stroke-dasharray:none;stroke-opacity:1"
       d="M 1898.2444,1557.9673 C 1854.314,1544.7266 1810.7389,1529.646 1768.332,1512.4474 C 1748.3635,1504.349 1722.3544,1483.1974 1709.9381,1465.5454 C 1662.0693,1397.4906 1623.6428,1336.3005 1573.6485,1270.5393 C 1554.2361,1245.0047 1521.3109,1221.8888 1489.3882,1219.1221 C 1446.8204,1215.4328 1399.9887,1215.1247 1361.3445,1210.2307 C 1332.7942,1206.615 1319.1105,1201.3196 1294.4231,1187.2369 C 1287.2439,1183.1414 1274.4581,1185.5751 1268.711,1180.602 C 1262.5442,1175.2658 1263.6492,1164.4003 1259.6402,1156.4681 C 1255.9405,1149.1481 1251.6705,1142.2255 1247.5027,1135.1635 C 1213.74,1077.9556 1183.5592,1022.973 1146.9452,968.00906 C 1140.1389,957.79157 1126.2551,947.16851 1115.4114,941.96836 C 1099.406,934.29302 1084.0071,932.7343 1067.2565,926.49302 C 1063.0023,924.9079 1052.3864,923.21792 1052.3094,915.82187 C 1052.1685,902.28027 1067.3954,905.42662 1076.1778,906.24574 C 1097.6715,908.25031 1120.0645,907.87514 1140.6173,913.29835 C 1154.6524,917.00175 1168.7403,924.40061 1179.9414,933.6257 C 1195.0039,946.03112 1207.5969,962.31501 1219.4078,978.18984 C 1234.5594,998.55476 1245.4008,1022.1819 1260.8289,1042.345 C 1279.6314,1066.9183 1299.8434,1091.2602 1322.0995,1112.3991 C 1331.1791,1121.0228 1342.9685,1130.6162 1354.8358,1131.6327 C 1374.2869,1133.2987 1395.5487,1123.4894 1416.0546,1120.4463 C 1433.3644,1117.8775 1451.2797,1116.3898 1468.7142,1116.3089 C 1489.9294,1116.2104 1510.9129,1117.0747 1532.0034,1119.908 C 1584.9737,1127.0242 1607.8024,1135.6595 1607.9209,1103.2625 C 1608.027,1074.2447 1604.5529,1053.1919 1611.3047,1025.1099 C 1614.9267,1010.0456 1628.4884,995.99579 1639.5903,984.67801 C 1665.6783,958.08244 1695.8852,931.97171 1726.3165,911.63804 C 1735.4189,905.5561 1757.1944,902.29119 1768.3423,900.90086 C 1830.9269,893.0955 1883.6975,887.85478 1946.1619,883.52335 C 1955.603,882.86862 1967.2366,884.87556 1975.9474,888.68895 C 2021.5246,908.64162 2066.6722,930.07356 2109.0258,954.82153 C 2118.3324,960.2595 2123.8021,971.61162 2127.3765,981.46171 C 2131.007,991.46671 2130.4984,1003.4265 2127.186,1013.7376 C 2117.0937,1045.1534 2098.3662,1072.6703 2086.8164,1103.0749 C 2082.4882,1114.4688 2078.7392,1128.148 2084.2966,1138.4049 C 2095.48,1159.0458 2119.5486,1175.0186 2133.9649,1195.1067 C 2141.7504,1205.9552 2147.8392,1219.4081 2149.6119,1232.5923 C 2153.0433,1258.1109 2150.3311,1285.0283 2149.5776,1311.2147 C 2148.8026,1338.148 2144.4858,1365.5042 2146.3666,1392.0981 C 2147.7525,1411.696 2153.0267,1431.4227 2160.5208,1449.7525 C 2185.8019,1511.5866 2215.4248,1569.158 2237.7453,1630.1479 C 2240.3808,1637.3491 2239.5774,1649.8257 2234.2458,1654.3634 C 2229.1677,1658.6855 2219.1917,1661.4572 2212.1231,1659.0223 C 2104.5999,1621.9837 2001.3511,1589.0441 1898.2444,1557.9673 z"
       id="path2406"
       sodipodi:nodetypes="cssssssssssssssssssssssssssssssssssssssssssss" />
    <path
       style="fill:none;fill-rule:evenodd;stroke:#000000;stroke-width:2;stroke-linecap:butt;stroke-linejoin:round;stroke-miterlimit:4;stroke-dasharray:none;stroke-opacity:1"
       d="M 2035.1216,1596.2129 C 2014.3575,1587.3589 1992.6567,1575.3075 1971.1258,1568.61 C 1932.6037,1556.6272 1894.1295,1544.8895 1856.7945,1532.9352 C 1844.7441,1529.067 1830.7869,1531.3906 1817.4566,1527.2195"
       id="path3178"
       sodipodi:nodetypes="csss" />
    <g
       id="g4160">
      <text
         id="text3180"
         y="1225.7991"
         x="1804.7523"
         style="font-size:64px;font-style:normal;font-weight:normal;fill:#000000;fill-opacity:1;stroke:#ffffff;stroke-width:1px;stroke-linecap:butt;stroke-linejoin:miter;stroke-opacity:1;font-family:Times New Roman"
         xml:space="preserve"><tspan
           y="1225.7991"
           x="1804.7523"
           id="tspan3182"
           sodipodi:role="line">N</tspan></text>
      <path
         id="path2745"
         d="M 1909.2548,1207.3448 L 1854.8293,1213.437 L 1854.9191,1212.4097 L 1867.1344,1203.6599 L 1856.6241,1192.9215 L 1856.714,1191.8944 L 1909.2548,1207.3448 z"
         style="fill:#ff0000;fill-opacity:1;fill-rule:nonzero;stroke:#ffffff;stroke-width:1;stroke-linecap:round;stroke-linejoin:round;stroke-miterlimit:4;stroke-dasharray:none;stroke-dashoffset:0;stroke-opacity:1" />
    </g>
    <g
       style="display:inline"
       transform="matrix(-0.9106075,0.4132722,-0.4132722,-0.9106075,3523.5335,1710.768)"
       id="g4801"
       clip-path="url(#clipPath9716)">
      <path
         clip-path="url(#clipPath3494)"
         transform="matrix(-0.358939,0.3679125,-1.1151124,-1.0879142,3587.0721,1686.6577)"
         d="M 1695.937,1398.5206 L 1671.4558,1398.5206 L 1683.6964,1377.3193 L 1695.937,1398.5206 z"
         inkscape:randomized="0"
         inkscape:rounded="0"
         inkscape:flatsided="true"
         sodipodi:arg2="1.5707963"
         sodipodi:arg1="0.52359878"
         sodipodi:r2="7.0671172"
         sodipodi:r1="14.134234"
         sodipodi:cy="1391.4535"
         sodipodi:cx="1683.6964"
         sodipodi:sides="3"
         id="path3463"
         style="opacity:1;fill:#ff0000;fill-opacity:1;stroke:#ffffff;stroke-width:0.83812821;stroke-linecap:round;stroke-linejoin:miter;stroke-miterlimit:4;stroke-dasharray:none;stroke-dashoffset:0;stroke-opacity:1;display:inline"
         sodipodi:type="star" />
      <rect
         clip-path="url(#clipPath3490)"
         ry="0"
         transform="matrix(-0.7183395,-0.6956928,0.6956928,-0.7183395,0,0)"
         y="376.01733"
         x="-1620.8837"
         height="53.588943"
         width="13.041035"
         id="rect3457"
         style="opacity:1;fill:url(#pattern4166);fill-opacity:1;stroke:#000000;stroke-width:0.74999946;stroke-linecap:round;stroke-linejoin:round;stroke-miterlimit:4;stroke-dasharray:none;stroke-dashoffset:0;stroke-opacity:1;display:inline" />
    </g>
    <g
       id="g4107"
       transform="translate(36.576333,13.475491)">
      <path
         transform="translate(1109.1808,731.7655)"
         d="M 600.80859,783.76538 A 21.205009,21.205009 0 1 1 558.39857,783.76538 A 21.205009,21.205009 0 1 1 600.80859,783.76538 z"
         sodipodi:ry="21.205009"
         sodipodi:rx="21.205009"
         sodipodi:cy="783.76538"
         sodipodi:cx="579.60358"
         id="path4105"
         style="fill:#ffffff;fill-opacity:1;fill-rule:nonzero;stroke:#181818;stroke-width:1;stroke-linecap:round;stroke-linejoin:round;stroke-miterlimit:4;stroke-dasharray:none;stroke-dashoffset:0;stroke-opacity:1"
         sodipodi:type="arc" />
      <text
         id="text3969"
         y="1529.0465"
         x="1678.8821"
         style="font-size:40px;font-style:normal;font-weight:normal;writing-mode:lr-tb;fill:#000000;fill-opacity:1;stroke:none;stroke-width:1px;stroke-linecap:butt;stroke-linejoin:miter;stroke-opacity:1;font-family:Times New Roman"
         xml:space="preserve"><tspan
           y="1529.0465"
           x="1678.8821"
           id="tspan3971"
           sodipodi:role="line">1</tspan></text>
    </g>
    <g
       id="g4100"
       transform="translate(-8.6628157,24.063377)">
      <path
         transform="translate(930.59808,458.14868)"
         d="M 600.80859,783.76538 A 21.205009,21.205009 0 1 1 558.39857,783.76538 A 21.205009,21.205009 0 1 1 600.80859,783.76538 z"
         sodipodi:ry="21.205009"
         sodipodi:rx="21.205009"
         sodipodi:cy="783.76538"
         sodipodi:cx="579.60358"
         id="path4098"
         style="fill:#ffffff;fill-opacity:1;fill-rule:nonzero;stroke:#181818;stroke-width:1;stroke-linecap:round;stroke-linejoin:round;stroke-miterlimit:4;stroke-dasharray:none;stroke-dashoffset:0;stroke-opacity:1"
         sodipodi:type="arc" />
      <text
         id="text3973"
         y="1255.4297"
         x="1500.6021"
         style="font-size:40px;font-style:normal;font-weight:normal;writing-mode:lr-tb;fill:#000000;fill-opacity:1;stroke:none;stroke-width:1px;stroke-linecap:butt;stroke-linejoin:miter;stroke-opacity:1;font-family:Times New Roman"
         xml:space="preserve"><tspan
           y="1255.4297"
           x="1500.6021"
           id="tspan3975"
           sodipodi:role="line">2</tspan></text>
    </g>
    <g
       id="g4072"
       transform="translate(-7.7002806,7.7002806)">
      <path
         transform="translate(789.98785,300.1239)"
         d="M 600.80859,783.76538 A 21.205009,21.205009 0 1 1 558.39857,783.76538 A 21.205009,21.205009 0 1 1 600.80859,783.76538 z"
         sodipodi:ry="21.205009"
         sodipodi:rx="21.205009"
         sodipodi:cy="783.76538"
         sodipodi:cx="579.60358"
         id="path4070"
         style="fill:#ffffff;fill-opacity:1;fill-rule:nonzero;stroke:#181818;stroke-width:1;stroke-linecap:round;stroke-linejoin:round;stroke-miterlimit:4;stroke-dasharray:none;stroke-dashoffset:0;stroke-opacity:1"
         sodipodi:type="arc" />
      <text
         id="text3989"
         y="1097.1705"
         x="1359.5035"
         style="font-size:40px;font-style:normal;font-weight:normal;writing-mode:lr-tb;fill:#000000;fill-opacity:1;stroke:none;stroke-width:1px;stroke-linecap:butt;stroke-linejoin:miter;stroke-opacity:1;font-family:Times New Roman"
         xml:space="preserve"><tspan
           y="1097.1705"
           x="1359.5035"
           id="tspan3991"
           sodipodi:role="line">6</tspan></text>
    </g>
    <text
       xml:space="preserve"
       style="font-size:40px;font-style:normal;font-weight:normal;writing-mode:lr-tb;fill:#000000;fill-opacity:1;stroke:none;stroke-width:1px;stroke-linecap:butt;stroke-linejoin:miter;stroke-opacity:1;font-family:Times New Roman"
       x="1933.4315"
       y="924.61078"
       id="text4005"><tspan
         sodipodi:role="line"
         id="tspan4007"
         x="1933.4315"
         y="924.61078" /></text>
    <text
       xml:space="preserve"
       style="font-size:40px;font-style:normal;font-weight:normal;writing-mode:lr-tb;fill:#000000;fill-opacity:1;stroke:none;stroke-width:1px;stroke-linecap:butt;stroke-linejoin:miter;stroke-opacity:1;font-family:Times New Roman"
       x="1150.2294"
       y="1282.4081"
       id="text4112"><tspan
         sodipodi:role="line"
         id="tspan4114"
         x="1150.2294"
         y="1282.4081" /></text>
    <g
       id="g4274">
      <use
         style="stroke:#ffffff;stroke-width:2;stroke-miterlimit:4;stroke-dasharray:none;stroke-opacity:1"
         id="use4254"
         xlink:href="#text4116"
         y="0"
         x="0"
         width="744.09448"
         height="1052.3622" />
      <g
         transform="translate(1.9250701,17.325631)"
         id="g4093">
        <path
           sodipodi:type="arc"
           style="fill:#ffffff;fill-opacity:1;fill-rule:nonzero;stroke:#181818;stroke-width:1;stroke-linecap:round;stroke-linejoin:round;stroke-miterlimit:4;stroke-dasharray:none;stroke-dashoffset:0;stroke-opacity:1"
           id="path4091"
           sodipodi:cx="579.60358"
           sodipodi:cy="783.76538"
           sodipodi:rx="21.205009"
           sodipodi:ry="21.205009"
           d="M 600.80859,783.76538 A 21.205009,21.205009 0 1 1 558.39857,783.76538 A 21.205009,21.205009 0 1 1 600.80859,783.76538 z"
           transform="translate(657.48553,406.90112)" />
        <text
           xml:space="preserve"
           style="font-size:40px;font-style:normal;font-weight:normal;writing-mode:lr-tb;fill:#000000;fill-opacity:1;stroke:none;stroke-width:1px;stroke-linecap:butt;stroke-linejoin:miter;stroke-opacity:1;font-family:Times New Roman"
           x="1227.9387"
           y="1203.9478"
           id="text3977"><tspan
             sodipodi:role="line"
             id="tspan3979"
             x="1227.9387"
             y="1203.9478">3</tspan></text>
      </g>
      <text
         id="text4116"
         y="1258.3446"
         x="1134.8289"
         style="font-size:22px;font-style:normal;font-weight:normal;writing-mode:lr-tb;fill:#000000;fill-opacity:1;font-family:Times New Roman"
         xml:space="preserve"><tspan
           y="1258.3446"
           x="1134.8289"
           id="tspan4118"
           sodipodi:role="line">Virage des Six Fréres</tspan></text>
    </g>
    <g
       id="g4303">
      <use
         style="stroke:#ffffff;stroke-width:2;stroke-miterlimit:4;stroke-dasharray:none;stroke-opacity:1"
         id="use4258"
         xlink:href="#text4128"
         y="0"
         x="0"
         width="744.09448"
         height="1052.3622" />
      <g
         transform="translate(4.8126754,21.175772)"
         id="g4065">
        <path
           sodipodi:type="arc"
           style="fill:#ffffff;fill-opacity:1;fill-rule:nonzero;stroke:#181818;stroke-width:1;stroke-linecap:round;stroke-linejoin:round;stroke-miterlimit:4;stroke-dasharray:none;stroke-dashoffset:0;stroke-opacity:1"
           id="path4063"
           sodipodi:cx="579.60358"
           sodipodi:cy="783.76538"
           sodipodi:rx="21.205009"
           sodipodi:ry="21.205009"
           d="M 600.80859,783.76538 A 21.205009,21.205009 0 1 1 558.39857,783.76538 A 21.205009,21.205009 0 1 1 600.80859,783.76538 z"
           transform="translate(985.19415,281.36902)" />
        <text
           xml:space="preserve"
           style="font-size:40px;font-style:normal;font-weight:normal;writing-mode:lr-tb;fill:#000000;fill-opacity:1;stroke:none;stroke-width:1px;stroke-linecap:butt;stroke-linejoin:miter;stroke-opacity:1;font-family:Times New Roman"
           x="1554.9442"
           y="1078.1031"
           id="text3993"><tspan
             sodipodi:role="line"
             id="tspan3995"
             x="1554.9442"
             y="1078.1031">7</tspan></text>
      </g>
      <text
         id="text4128"
         y="1035.999"
         x="1482.3041"
         style="font-size:22px;font-style:normal;font-weight:normal;writing-mode:lr-tb;fill:#000000;fill-opacity:1;font-family:Times New Roman"
         xml:space="preserve"><tspan
           y="1035.999"
           x="1482.3041"
           id="tspan4130"
           sodipodi:role="line">Virage</tspan><tspan
           id="tspan4132"
           y="1063.499"
           x="1482.3041"
           sodipodi:role="line">Samson</tspan></text>
    </g>
    <g
       id="g4322">
      <use
         style="stroke:#ffffff;stroke-width:2;stroke-miterlimit:4;stroke-dasharray:none;stroke-opacity:1"
         id="use4260"
         xlink:href="#text4134"
         y="0"
         x="0"
         width="744.09448"
         height="1052.3622" />
      <g
         transform="translate(72.190131,44.276613)"
         id="g4058">
        <path
           sodipodi:type="arc"
           style="fill:#ffffff;fill-opacity:1;fill-rule:nonzero;stroke:#181818;stroke-width:1;stroke-linecap:round;stroke-linejoin:round;stroke-miterlimit:4;stroke-dasharray:none;stroke-dashoffset:0;stroke-opacity:1"
           id="path4051"
           sodipodi:cx="579.60358"
           sodipodi:cy="783.76538"
           sodipodi:rx="21.205009"
           sodipodi:ry="21.205009"
           d="M 600.80859,783.76538 A 21.205009,21.205009 0 1 1 558.39857,783.76538 A 21.205009,21.205009 0 1 1 600.80859,783.76538 z"
           transform="translate(996.83966,207.64716)" />
        <text
           xml:space="preserve"
           style="font-size:40px;font-style:normal;font-weight:normal;writing-mode:lr-tb;fill:#000000;fill-opacity:1;stroke:none;stroke-width:1px;stroke-linecap:butt;stroke-linejoin:miter;stroke-opacity:1;font-family:Times New Roman"
           x="1566.3846"
           y="1004.6938"
           id="text3997"><tspan
             sodipodi:role="line"
             id="tspan3999"
             x="1566.3846"
             y="1004.6938">8</tspan></text>
      </g>
      <text
         id="text4134"
         y="1042.7368"
         x="1674.811"
         style="font-size:22px;font-style:normal;font-weight:normal;writing-mode:lr-tb;fill:#000000;fill-opacity:1;stroke:none;stroke-width:1px;stroke-linecap:butt;stroke-linejoin:miter;stroke-opacity:1;font-family:Times New Roman"
         xml:space="preserve"><tspan
           y="1042.7368"
           x="1674.811"
           id="tspan4136"
           sodipodi:role="line">Virage de Beauval</tspan></text>
    </g>
    <g
       id="g4313">
      <use
         style="stroke:#ffffff;stroke-width:2;stroke-miterlimit:4;stroke-dasharray:none;stroke-opacity:1"
         id="use4262"
         xlink:href="#text4138"
         y="0"
         x="0"
         width="744.09448"
         height="1052.3622" />
      <g
         transform="translate(59.677175,55.827034)"
         id="g4053">
        <path
           sodipodi:type="arc"
           style="fill:#ffffff;fill-opacity:1;fill-rule:nonzero;stroke:#181818;stroke-width:1;stroke-linecap:round;stroke-linejoin:round;stroke-miterlimit:4;stroke-dasharray:none;stroke-dashoffset:0;stroke-opacity:1"
           id="path3967"
           sodipodi:cx="579.60358"
           sodipodi:cy="783.76538"
           sodipodi:rx="21.205009"
           sodipodi:ry="21.205009"
           d="M 600.80859,783.76538 A 21.205009,21.205009 0 1 1 558.39857,783.76538 A 21.205009,21.205009 0 1 1 600.80859,783.76538 z"
           transform="translate(1109.2101,101.86224)" />
        <text
           xml:space="preserve"
           style="font-size:40px;font-style:normal;font-weight:normal;writing-mode:lr-tb;fill:#000000;fill-opacity:1;stroke:none;stroke-width:1px;stroke-linecap:butt;stroke-linejoin:miter;stroke-opacity:1;font-family:Times New Roman"
           x="1678.8821"
           y="898.86981"
           id="text4001"><tspan
             sodipodi:role="line"
             id="tspan4003"
             x="1678.8821"
             y="898.86981">9</tspan></text>
      </g>
      <text
         id="text4138"
         y="923.38251"
         x="1533.3184"
         style="font-size:22px;font-style:normal;font-weight:normal;writing-mode:lr-tb;fill:#000000;fill-opacity:1;font-family:Times New Roman"
         xml:space="preserve"><tspan
           y="923.38251"
           x="1533.3184"
           id="tspan4140"
           sodipodi:role="line">Courbe de l'Etoile</tspan></text>
    </g>
    <g
       id="g4331">
      <use
         style="stroke:#ffffff;stroke-width:2;stroke-miterlimit:4;stroke-dasharray:none;stroke-opacity:1"
         id="use4264"
         xlink:href="#text4142"
         y="0"
         x="0"
         width="744.09448"
         height="1052.3622" />
      <g
         transform="translate(-6.7377455,11.550421)"
         id="g4046">
        <path
           sodipodi:type="arc"
           style="fill:#ffffff;fill-opacity:1;fill-rule:nonzero;stroke:#181818;stroke-width:1;stroke-linecap:round;stroke-linejoin:round;stroke-miterlimit:4;stroke-dasharray:none;stroke-dashoffset:0;stroke-opacity:1"
           id="path4044"
           sodipodi:cx="579.60358"
           sodipodi:cy="783.76538"
           sodipodi:rx="21.205009"
           sodipodi:ry="21.205009"
           d="M 600.80859,783.76538 A 21.205009,21.205009 0 1 1 558.39857,783.76538 A 21.205009,21.205009 0 1 1 600.80859,783.76538 z"
           transform="translate(1523.2309,194.29999)" />
        <text
           xml:space="preserve"
           style="font-size:40px;font-style:normal;font-weight:normal;writing-mode:lr-tb;fill:#000000;fill-opacity:1;stroke:none;stroke-width:1px;stroke-linecap:butt;stroke-linejoin:miter;stroke-opacity:1;font-family:Times New Roman"
           x="2081.2036"
           y="991.34662"
           id="text4009"><tspan
             sodipodi:role="line"
             id="tspan4011"
             x="2081.2036"
             y="991.34662">10</tspan></text>
      </g>
      <text
         id="text4142"
         y="996.53516"
         x="1915.4448"
         style="font-size:22px;font-style:normal;font-weight:normal;writing-mode:lr-tb;fill:#000000;fill-opacity:1;font-family:Times New Roman"
         xml:space="preserve"><tspan
           y="996.53516"
           x="1915.4448"
           id="tspan4144"
           sodipodi:role="line">Virage du Gresil</tspan></text>
    </g>
    <g
       id="g4340">
      <use
         style="stroke:#ffffff;stroke-width:2;stroke-miterlimit:4;stroke-dasharray:none;stroke-opacity:1"
         id="use4266"
         xlink:href="#text4146"
         y="0"
         x="0"
         width="744.09448"
         height="1052.3622" />
      <g
         transform="translate(54.342009,-3.8134743)"
         id="g4039">
        <path
           sodipodi:type="arc"
           style="fill:#ffffff;fill-opacity:1;fill-rule:nonzero;stroke:#181818;stroke-width:1;stroke-linecap:round;stroke-linejoin:round;stroke-miterlimit:4;stroke-dasharray:none;stroke-dashoffset:0;stroke-opacity:1"
           id="path4037"
           sodipodi:cx="579.60358"
           sodipodi:cy="783.76538"
           sodipodi:rx="21.205009"
           sodipodi:ry="21.205009"
           d="M 600.80859,783.76538 A 21.205009,21.205009 0 1 1 558.39857,783.76538 A 21.205009,21.205009 0 1 1 600.80859,783.76538 z"
           transform="translate(1491.9479,343.74451)" />
        <text
           xml:space="preserve"
           style="font-size:40px;font-style:normal;font-weight:normal;writing-mode:lr-tb;fill:#000000;fill-opacity:1;stroke:none;stroke-width:1px;stroke-linecap:butt;stroke-linejoin:miter;stroke-opacity:1;font-family:Times New Roman"
           x="2051.6492"
           y="1141.0255"
           id="text4013"><tspan
             sodipodi:role="line"
             id="tspan4015"
             x="2051.6492"
             y="1141.0255">11</tspan></text>
      </g>
      <text
         id="text4146"
         y="1129.365"
         x="1871.1682"
         style="font-size:22px;font-style:normal;font-weight:normal;writing-mode:lr-tb;fill:#000000;fill-opacity:1;font-family:Times New Roman"
         xml:space="preserve"><tspan
           y="1129.365"
           x="1871.1682"
           id="tspan4148"
           sodipodi:role="line">Virage de l'Autoroute</tspan></text>
    </g>
    <g
       id="g4349">
      <use
         style="stroke:#ffffff;stroke-width:2;stroke-miterlimit:4;stroke-dasharray:none;stroke-opacity:1"
         id="use4268"
         xlink:href="#text4150"
         y="0"
         x="0"
         width="744.09448"
         height="1052.3622" />
      <g
         id="g4032">
        <path
           sodipodi:type="arc"
           style="fill:#ffffff;fill-opacity:1;fill-rule:nonzero;stroke:#181818;stroke-width:1;stroke-linecap:round;stroke-linejoin:round;stroke-miterlimit:4;stroke-dasharray:none;stroke-dashoffset:0;stroke-opacity:1"
           id="path4030"
           sodipodi:cx="579.60358"
           sodipodi:cy="783.76538"
           sodipodi:rx="21.205009"
           sodipodi:ry="21.205009"
           d="M 600.80859,783.76538 A 21.205009,21.205009 0 1 1 558.39857,783.76538 A 21.205009,21.205009 0 1 1 600.80859,783.76538 z"
           transform="translate(1534.5541,451.4751)" />
        <text
           xml:space="preserve"
           style="font-size:40px;font-style:normal;font-weight:normal;writing-mode:lr-tb;fill:#000000;fill-opacity:1;stroke:none;stroke-width:1px;stroke-linecap:butt;stroke-linejoin:miter;stroke-opacity:1;font-family:Times New Roman"
           x="2092.644"
           y="1248.7561"
           id="text4017"><tspan
             sodipodi:role="line"
             id="tspan4019"
             x="2092.644"
             y="1248.7561">12</tspan></text>
      </g>
      <text
         id="text4150"
         y="1248.7194"
         x="1926.9951"
         style="font-size:22px;font-style:normal;font-weight:normal;writing-mode:lr-tb;fill:#000000;fill-opacity:1;font-family:Times New Roman"
         xml:space="preserve"><tspan
           y="1248.7194"
           x="1926.9951"
           id="tspan4152"
           sodipodi:role="line">Virage de la Côte</tspan></text>
    </g>
    <g
       id="g4358">
      <use
         style="stroke:#ffffff;stroke-width:2;stroke-miterlimit:4;stroke-dasharray:none;stroke-opacity:1"
         id="use4270"
         xlink:href="#text4154"
         y="0"
         x="0"
         width="744.09448"
         height="1052.3622" />
      <g
         transform="translate(-0.9533686,20.02074)"
         id="g4025">
        <path
           sodipodi:type="arc"
           style="fill:#ffffff;fill-opacity:1;fill-rule:nonzero;stroke:#181818;stroke-width:1;stroke-linecap:round;stroke-linejoin:round;stroke-miterlimit:4;stroke-dasharray:none;stroke-dashoffset:0;stroke-opacity:1"
           id="path8397"
           sodipodi:cx="579.60358"
           sodipodi:cy="783.76538"
           sodipodi:rx="21.205009"
           sodipodi:ry="21.205009"
           d="M 600.80859,783.76538 A 21.205009,21.205009 0 1 1 558.39857,783.76538 A 21.205009,21.205009 0 1 1 600.80859,783.76538 z"
           transform="translate(1622.3874,816.84961)" />
        <text
           xml:space="preserve"
           style="font-size:40px;font-style:normal;font-weight:normal;writing-mode:lr-tb;fill:#000000;fill-opacity:1;stroke:none;stroke-width:1px;stroke-linecap:butt;stroke-linejoin:miter;stroke-opacity:1;font-family:Times New Roman"
           x="2181.3074"
           y="1613.8962"
           id="text4021"><tspan
             sodipodi:role="line"
             id="tspan4023"
             x="2181.3074"
             y="1613.8962">13</tspan></text>
      </g>
      <text
         id="text4154"
         y="1564.4309"
         x="2104.1016"
         style="font-size:22px;font-style:normal;font-weight:normal;writing-mode:lr-tb;fill:#000000;fill-opacity:1;font-family:Times New Roman"
         xml:space="preserve"><tspan
           y="1564.4309"
           x="2104.1016"
           id="tspan4156"
           sodipodi:role="line">Virage</tspan><tspan
           id="tspan4158"
           y="1591.9309"
           x="2104.1016"
           sodipodi:role="line">du Paradis</tspan></text>
    </g>
    <g
       id="g4283">
      <use
         style="stroke:#ffffff;stroke-width:2;stroke-miterlimit:4;stroke-dasharray:none;stroke-opacity:1"
         id="use4256"
         xlink:href="#text4120"
         y="0"
         x="0"
         width="744.09448"
         height="1052.3622" />
      <path
         transform="matrix(-0.5074964,8.1511182e-2,0.2470535,1.53818,1571.0082,-1322.7885)"
         d="M 1695.937,1398.5206 L 1671.4558,1398.5206 L 1683.6964,1377.3193 L 1695.937,1398.5206 z"
         inkscape:randomized="0"
         inkscape:rounded="0"
         inkscape:flatsided="true"
         sodipodi:arg2="1.5707963"
         sodipodi:arg1="0.52359878"
         sodipodi:r2="7.0671172"
         sodipodi:r1="14.134234"
         sodipodi:cy="1391.4535"
         sodipodi:cx="1683.6964"
         sodipodi:sides="3"
         id="path8698"
         style="fill:#000000;fill-opacity:1;stroke:#ffffff;stroke-width:1.11750424;stroke-linecap:round;stroke-linejoin:miter;stroke-miterlimit:4;stroke-dasharray:none;stroke-dashoffset:0;stroke-opacity:1;display:inline"
         sodipodi:type="star" />
      <g
         transform="translate(7.7002807,23.100841)"
         id="g4086">
        <path
           sodipodi:type="arc"
           style="fill:#ffffff;fill-opacity:1;fill-rule:nonzero;stroke:#181818;stroke-width:1;stroke-linecap:round;stroke-linejoin:round;stroke-miterlimit:4;stroke-dasharray:none;stroke-dashoffset:0;stroke-opacity:1"
           id="path4084"
           sodipodi:cx="579.60358"
           sodipodi:cy="783.76538"
           sodipodi:rx="21.205009"
           sodipodi:ry="21.205009"
           d="M 600.80859,783.76538 A 21.205009,21.205009 0 1 1 558.39857,783.76538 A 21.205009,21.205009 0 1 1 600.80859,783.76538 z"
           transform="translate(481.58112,185.48529)" />
        <text
           xml:space="preserve"
           style="font-size:40px;font-style:normal;font-weight:normal;writing-mode:lr-tb;fill:#000000;fill-opacity:1;stroke:none;stroke-width:1px;stroke-linecap:butt;stroke-linejoin:miter;stroke-opacity:1;font-family:Times New Roman"
           x="1051.5656"
           y="982.7663"
           id="text3981"><tspan
             sodipodi:role="line"
             id="tspan3983"
             x="1051.5656"
             y="982.7663">4</tspan></text>
      </g>
      <text
         id="text4120"
         y="1070.6504"
         x="1044.3507"
         style="font-size:22px;font-style:normal;font-weight:normal;writing-mode:lr-tb;fill:#000000;fill-opacity:1;font-family:Times New Roman"
         xml:space="preserve"><tspan
           y="1070.6504"
           x="1044.3507"
           id="tspan4122"
           sodipodi:role="line">Virage du</tspan><tspan
           id="tspan4124"
           y="1098.1504"
           x="1044.3507"
           sodipodi:role="line">Nouveau</tspan><tspan
           id="tspan4126"
           y="1125.6504"
           x="1044.3507"
           sodipodi:role="line">Monde</tspan></text>
      <path
         transform="matrix(-0.5124965,3.9295553e-2,0.1191014,1.5533345,1769.2916,-1189.6295)"
         d="M 1695.937,1398.5206 L 1671.4558,1398.5206 L 1683.6964,1377.3193 L 1695.937,1398.5206 z"
         inkscape:randomized="0"
         inkscape:rounded="0"
         inkscape:flatsided="true"
         sodipodi:arg2="1.5707963"
         sodipodi:arg1="0.52359878"
         sodipodi:r2="7.0671172"
         sodipodi:r1="14.134234"
         sodipodi:cy="1391.4535"
         sodipodi:cx="1683.6964"
         sodipodi:sides="3"
         id="path4165"
         style="fill:#000000;fill-opacity:1;stroke:#ffffff;stroke-width:1.11750424;stroke-linecap:round;stroke-linejoin:miter;stroke-miterlimit:4;stroke-dasharray:none;stroke-dashoffset:0;stroke-opacity:1;display:inline"
         sodipodi:type="star" />
    </g>
    <g
       id="g4296">
      <g
         transform="translate(49.089289,40.426473)"
         id="g4079">
        <path
           sodipodi:type="arc"
           style="fill:#ffffff;fill-opacity:1;fill-rule:nonzero;stroke:#181818;stroke-width:1;stroke-linecap:round;stroke-linejoin:round;stroke-miterlimit:4;stroke-dasharray:none;stroke-dashoffset:0;stroke-opacity:1"
           id="path4077"
           sodipodi:cx="579.60358"
           sodipodi:cy="783.76538"
           sodipodi:rx="21.205009"
           sodipodi:ry="21.205009"
           d="M 600.80859,783.76538 A 21.205009,21.205009 0 1 1 558.39857,783.76538 A 21.205009,21.205009 0 1 1 600.80859,783.76538 z"
           transform="translate(617.93243,106.86346)" />
        <text
           xml:space="preserve"
           style="font-size:40px;font-style:normal;font-weight:normal;writing-mode:lr-tb;fill:#000000;fill-opacity:1;stroke:none;stroke-width:1px;stroke-linecap:butt;stroke-linejoin:miter;stroke-opacity:1;font-family:Times New Roman"
           x="1187.8973"
           y="903.63666"
           id="text3985"><tspan
             sodipodi:role="line"
             id="tspan3987"
             x="1187.8973"
             y="903.63666">5</tspan></text>
      </g>
      <path
         transform="matrix(-0.1209186,0.4995752,1.5141714,0.3664946,-694.89459,-431.09106)"
         d="M 1695.937,1398.5206 L 1671.4558,1398.5206 L 1683.6964,1377.3193 L 1695.937,1398.5206 z"
         inkscape:randomized="0"
         inkscape:rounded="0"
         inkscape:flatsided="true"
         sodipodi:arg2="1.5707963"
         sodipodi:arg1="0.52359878"
         sodipodi:r2="7.0671172"
         sodipodi:r1="14.134234"
         sodipodi:cy="1391.4535"
         sodipodi:cx="1683.6964"
         sodipodi:sides="3"
         id="path4167"
         style="fill:#000000;fill-opacity:1;stroke:#ffffff;stroke-width:1.11750424;stroke-linecap:round;stroke-linejoin:miter;stroke-miterlimit:4;stroke-dasharray:none;stroke-dashoffset:0;stroke-opacity:1;display:inline"
         sodipodi:type="star" />
    </g>
  </g>
</svg>
